<?xml version="1.0" standalone="no"?>
<!DOCTYPE svg PUBLIC "-//W3C//DTD SVG 20010904//EN"
 "http://www.w3.org/TR/2001/REC-SVG-20010904/DTD/svg10.dtd">
<svg version="1.0" xmlns="http://www.w3.org/2000/svg"
 width="700.000000pt" height="700.000000pt" viewBox="0 0 700.000000 700.000000"
 preserveAspectRatio="xMidYMid meet">
<metadata>
Created by potrace 1.14, written by Peter Selinger 2001-2017
</metadata>
<g transform="translate(0.000000,700.000000) scale(0.100000,-0.100000)"
fill="#000000" stroke="none">
<path d="M3180 6969 c-413 -38 -871 -171 -1239 -359 -951 -486 -1623 -1371
-1831 -2410 -46 -231 -62 -398 -65 -670 -1 -135 2 -263 6 -285 4 -22 10 -71
13 -110 2 -38 10 -96 16 -128 6 -33 9 -61 6 -65 -3 -3 -2 -10 4 -17 5 -6 11
-31 13 -56 2 -25 7 -51 11 -57 4 -6 8 -27 10 -45 2 -19 6 -39 10 -46 4 -6 5
-15 1 -20 -3 -5 0 -13 6 -16 5 -4 8 -13 5 -21 -3 -7 -1 -16 5 -20 6 -3 8 -12
5 -20 -3 -7 -1 -16 5 -20 6 -3 8 -12 5 -20 -3 -8 -1 -14 5 -14 6 0 9 -7 6 -15
-4 -8 -2 -17 4 -21 6 -3 8 -12 5 -20 -3 -8 -1 -14 5 -14 6 0 9 -7 5 -15 -3 -8
-1 -15 5 -15 6 0 9 -7 5 -15 -3 -8 -1 -15 5 -15 6 0 9 -7 5 -15 -3 -8 -1 -15
5 -15 6 0 9 -7 5 -15 -3 -8 -1 -15 5 -15 6 0 9 -7 5 -15 -3 -8 -1 -15 5 -15 6
0 9 -7 5 -15 -3 -8 -1 -15 4 -15 5 0 6 -7 3 -17 -5 -12 -3 -14 7 -8 10 6 12 4
7 -8 -4 -10 -2 -17 4 -17 6 0 9 -7 5 -15 -3 -8 -1 -15 4 -15 5 0 6 -7 3 -17
-4 -11 -3 -14 5 -9 7 4 13 1 13 -6 1 -7 3 -20 4 -28 1 -8 3 -21 4 -28 0 -7 5
-11 10 -8 10 7 24 -22 16 -34 -7 -11 16 -61 25 -55 3 2 25 -34 48 -81 23 -46
40 -84 37 -84 -3 0 -20 30 -39 67 -19 38 -35 65 -36 60 0 -4 16 -39 35 -78 22
-43 40 -67 47 -63 7 4 8 3 4 -5 -9 -14 101 -214 114 -206 5 3 12 0 16 -6 5 -8
3 -9 -6 -4 -8 5 -11 3 -8 -6 3 -8 10 -14 15 -14 6 0 15 -4 20 -9 5 -5 2 -6 -6
-1 -9 5 -12 3 -9 -6 3 -8 10 -14 15 -14 6 0 15 -4 20 -9 5 -5 2 -6 -6 -1 -9 5
-12 3 -9 -6 3 -8 10 -14 15 -14 6 0 15 -4 20 -9 5 -5 2 -6 -6 -1 -9 5 -12 3
-9 -6 3 -8 10 -14 15 -14 6 0 15 -4 20 -9 5 -5 2 -6 -6 -1 -9 5 -12 3 -9 -6 3
-8 10 -14 16 -14 6 0 17 -7 24 -15 11 -12 11 -12 -4 -1 -10 7 -18 9 -18 3 0
-12 25 -34 32 -27 3 3 17 -11 32 -32 l27 -38 -30 35 c-17 19 -31 30 -31 26 0
-16 51 -77 60 -71 4 3 24 -17 45 -43 l37 -47 -41 45 c-23 25 -41 41 -41 36 0
-15 71 -97 79 -91 5 2 19 -8 32 -23 l24 -27 -28 24 c-15 14 -27 20 -27 14 0
-12 45 -55 51 -48 3 2 30 -21 60 -53 l54 -57 -57 55 c-32 30 -58 50 -58 44 0
-13 115 -126 121 -119 3 2 23 -14 45 -38 l39 -42 -38 34 c-20 19 -37 30 -37
25 0 -13 227 -220 335 -306 720 -572 1619 -827 2553 -722 649 73 1243 318
1750 723 121 96 342 300 342 314 0 6 -21 -9 -47 -33 l-48 -45 44 47 c25 26 47
45 50 43 6 -7 111 96 111 109 0 6 -24 -12 -52 -39 l-53 -50 49 52 c28 29 52
50 55 48 6 -7 61 46 61 59 0 5 -15 -3 -32 -20 l-33 -29 29 32 c16 18 33 30 37
28 8 -6 79 76 79 91 0 5 -18 -11 -41 -36 l-41 -45 37 47 c21 26 41 46 45 43 9
-6 60 55 60 71 0 4 -14 -7 -31 -26 l-30 -35 27 38 c15 21 29 35 32 32 7 -7 32
15 32 27 0 6 -8 4 -17 -3 -16 -11 -16 -11 -5 1 7 8 18 15 24 15 6 0 13 6 16
14 3 9 0 11 -9 6 -8 -5 -11 -4 -6 1 5 5 14 9 20 9 5 0 12 6 15 14 3 9 0 11 -9
6 -8 -5 -11 -4 -6 1 5 5 14 9 20 9 5 0 12 6 15 14 3 9 0 11 -9 6 -8 -5 -11 -4
-6 1 5 5 14 9 20 9 5 0 12 6 15 14 3 9 0 11 -9 6 -8 -5 -11 -4 -6 1 5 5 14 9
20 9 5 0 12 6 15 14 3 9 0 11 -8 6 -9 -5 -11 -4 -6 4 4 6 11 9 16 6 11 -7 201
328 200 352 -1 4 -19 -27 -41 -70 -21 -42 -41 -77 -44 -77 -3 0 16 42 42 94
26 52 50 93 53 91 9 -6 32 44 25 55 -8 12 6 41 16 34 5 -3 10 1 10 8 1 7 3 20
4 28 1 8 3 21 4 28 0 7 6 10 13 6 8 -5 9 -2 5 9 -3 10 -2 17 3 17 5 0 7 7 4
15 -4 8 -1 15 5 15 6 0 8 7 4 17 -5 12 -3 14 7 8 10 -6 12 -4 7 8 -3 10 -2 17
3 17 5 0 7 7 4 15 -4 8 -1 15 5 15 6 0 8 7 5 15 -4 8 -1 15 5 15 6 0 8 7 5 15
-4 8 -1 15 5 15 6 0 8 7 5 15 -4 8 -1 15 5 15 6 0 8 7 5 15 -4 8 -1 15 5 15 6
0 8 7 5 15 -4 8 -1 15 5 15 6 0 8 6 5 14 -3 8 -1 17 5 20 6 4 8 13 4 21 -3 8
0 15 6 15 6 0 8 6 5 14 -3 8 -1 17 5 20 6 4 8 13 5 20 -3 8 -1 17 5 20 6 4 8
13 5 20 -3 8 0 17 5 21 6 3 9 11 6 16 -4 5 -3 14 1 20 4 7 8 27 10 46 2 18 6
39 10 45 4 6 9 32 11 57 2 25 8 50 13 56 6 7 7 14 4 17 -3 4 0 32 6 65 6 32
14 90 16 128 3 39 9 88 13 110 13 73 5 522 -13 670 -47 392 -153 756 -321
1103 -94 192 -152 294 -263 457 -529 776 -1360 1307 -2282 1459 -85 14 -207
30 -270 36 -135 12 -494 11 -630 -1z m-223 -1813 c147 -32 282 -89 395 -168
l58 -41 0 -1190 0 -1190 -41 51 c-79 101 -240 200 -390 242 -41 11 -130 25
-199 32 -138 12 -165 23 -186 73 -21 51 -21 2099 0 2149 25 61 46 68 176 63
63 -3 148 -13 187 -21z m-575 -1218 l3 -1033 23 -43 c31 -58 88 -114 146 -141
36 -18 76 -25 165 -32 208 -16 342 -64 445 -161 l51 -48 -493 3 -494 2 -29 33
-29 32 0 1181 0 1181 29 29 c27 27 35 29 105 29 l76 0 2 -1032z m2439 1022
c51 -28 49 19 49 -1229 0 -729 -4 -1169 -10 -1185 -5 -14 -24 -35 -42 -46 -32
-19 -51 -20 -581 -20 l-549 0 -34 -34 -34 -34 2 1231 3 1230 63 35 c110 60
112 60 635 61 311 1 485 -3 498 -9z m-2869 -1317 l3 -1128 28 -57 c33 -67 90
-121 166 -157 l56 -26 510 -3 511 -3 23 -45 c51 -95 153 -154 266 -153 120 0
204 45 264 141 l36 56 510 4 510 3 55 26 c74 34 120 76 156 141 l29 53 5 1135
5 1135 73 0 c71 0 75 -1 103 -33 l29 -32 0 -1286 0 -1286 -29 -29 -29 -29
-604 0 -603 0 -24 -45 c-28 -53 -82 -104 -143 -137 -42 -22 -50 -23 -338 -23
l-295 0 -50 27 c-58 30 -124 97 -144 146 l-13 32 -605 0 -605 0 -29 29 -29 29
0 1285 0 1284 21 27 c28 36 52 45 121 45 l58 1 2 -1127z m-1457 -1833 c9 -16
13 -30 11 -30 -3 0 -12 14 -21 30 -9 17 -13 30 -11 30 3 0 12 -13 21 -30z
m6030 0 c-9 -16 -18 -30 -21 -30 -2 0 2 14 11 30 9 17 18 30 21 30 2 0 -2 -13
-11 -30z m-5995 -60 c6 -11 8 -20 6 -20 -3 0 -10 9 -16 20 -6 11 -8 20 -6 20
3 0 10 -9 16 -20z m5960 0 c-6 -11 -13 -20 -16 -20 -2 0 0 9 6 20 6 11 13 20
16 20 2 0 0 -9 -6 -20z m-5930 -50 c6 -11 8 -20 6 -20 -3 0 -10 9 -16 20 -6
11 -8 20 -6 20 3 0 10 -9 16 -20z m5900 0 c-6 -11 -13 -20 -16 -20 -2 0 0 9 6
20 6 11 13 20 16 20 2 0 0 -9 -6 -20z m-5285 -740 c27 -27 47 -50 44 -50 -3 0
-27 23 -54 50 -27 28 -47 50 -44 50 3 0 27 -22 54 -50z m4715 47 c0 -1 -24
-25 -52 -52 l-53 -50 50 53 c46 48 55 57 55 49z m-4550 -194 c0 -7 -98 76
-107 90 -4 7 19 -10 50 -37 31 -27 57 -51 57 -53z m4440 94 c0 -2 -15 -16 -32
-33 l-33 -29 29 33 c28 30 36 37 36 29z m-70 -60 c0 -2 -10 -12 -22 -23 l-23
-19 19 23 c18 21 26 27 26 19z m-4280 -104 c0 -2 -18 10 -40 27 -22 17 -40 34
-40 37 0 2 18 -10 40 -27 22 -17 40 -34 40 -37z m4230 64 c0 -2 -10 -12 -22
-23 l-23 -19 19 23 c18 21 26 27 26 19z m-50 -41 c0 -2 -8 -10 -17 -17 -16
-13 -17 -12 -4 4 13 16 21 21 21 13z m-4110 -72 c0 -3 -13 4 -30 16 -16 12
-30 24 -30 26 0 3 14 -4 30 -16 17 -12 30 -24 30 -26z m4070 42 c0 -3 -15 -14
-32 -26 l-33 -22 30 26 c31 27 35 29 35 22z m-3920 -143 c0 -5 -12 2 -82 49
-32 21 -58 41 -58 43 0 3 32 -16 70 -41 39 -26 70 -49 70 -51z m3850 92 c0 -4
-98 -72 -130 -90 -30 -17 1 9 62 51 68 46 68 46 68 39z m-3770 -141 c0 -2 -9
0 -20 6 -11 6 -20 13 -20 16 0 2 9 0 20 -6 11 -6 20 -13 20 -16z m3590 21 c0
-2 -10 -9 -22 -15 -22 -11 -22 -10 -4 4 21 17 26 19 26 11z m-3540 -51 c0 -2
-9 0 -20 6 -11 6 -20 13 -20 16 0 2 9 0 20 -6 11 -6 20 -13 20 -16z m3490 21
c0 -2 -10 -9 -22 -15 -22 -11 -22 -10 -4 4 21 17 26 19 26 11z m-3380 -80 c0
-3 -18 4 -40 15 -22 11 -40 23 -40 25 0 3 18 -4 40 -15 22 -11 40 -23 40 -25z
m3310 40 c0 -2 -13 -11 -30 -20 -38 -19 -40 -11 -2 9 31 17 32 18 32 11z
m-3130 -125 c19 -11 31 -19 25 -19 -5 0 -26 8 -45 19 -19 11 -30 19 -25 19 6
0 26 -8 45 -19z m2880 -5 c-14 -8 -29 -14 -35 -14 -5 0 1 6 15 14 14 8 30 14
35 14 6 0 -1 -6 -15 -14z m-2790 -35 c8 -5 11 -10 5 -10 -5 0 -17 5 -25 10 -8
5 -10 10 -5 10 6 0 17 -5 25 -10z m150 -60 c8 -5 11 -10 5 -10 -5 0 -17 5 -25
10 -8 5 -10 10 -5 10 6 0 17 -5 25 -10z m197 -66 c-3 -3 -12 -4 -19 -1 -8 3
-5 6 6 6 11 1 17 -2 13 -5z m140 -40 c-3 -3 -12 -4 -19 -1 -8 3 -5 6 6 6 11 1
17 -2 13 -5z m1740 0 c-3 -3 -12 -4 -19 -1 -8 3 -5 6 6 6 11 1 17 -2 13 -5z
m-40 -10 c-3 -3 -12 -4 -19 -1 -8 3 -5 6 6 6 11 1 17 -2 13 -5z m-1570 -20
c-3 -3 -12 -4 -19 -1 -8 3 -5 6 6 6 11 1 17 -2 13 -5z m1440 -10 c-3 -3 -12
-4 -19 -1 -8 3 -5 6 6 6 11 1 17 -2 13 -5z m-1340 -10 c-3 -3 -12 -4 -19 -1
-8 3 -5 6 6 6 11 1 17 -2 13 -5z m1280 0 c-3 -3 -12 -4 -19 -1 -8 3 -5 6 6 6
11 1 17 -2 13 -5z m-1224 -11 c-7 -2 -19 -2 -25 0 -7 3 -2 5 12 5 14 0 19 -2
13 -5z m1174 1 c-3 -3 -12 -4 -19 -1 -8 3 -5 6 6 6 11 1 17 -2 13 -5z m-1114
-11 c-7 -2 -19 -2 -25 0 -7 3 -2 5 12 5 14 0 19 -2 13 -5z m1050 0 c-7 -2 -19
-2 -25 0 -7 3 -2 5 12 5 14 0 19 -2 13 -5z m-980 -10 c-7 -2 -19 -2 -25 0 -7
3 -2 5 12 5 14 0 19 -2 13 -5z m910 0 c-7 -2 -19 -2 -25 0 -7 3 -2 5 12 5 14
0 19 -2 13 -5z m-820 -10 c-7 -2 -21 -2 -30 0 -10 3 -4 5 12 5 17 0 24 -2 18
-5z m740 0 c-7 -2 -21 -2 -30 0 -10 3 -4 5 12 5 17 0 24 -2 18 -5z m-625 -10
c-10 -2 -28 -2 -40 0 -13 2 -5 4 17 4 22 1 32 -1 23 -4z m520 0 c-10 -2 -28
-2 -40 0 -13 2 -5 4 17 4 22 1 32 -1 23 -4z m-220 -10 c-32 -2 -86 -2 -120 0
-35 2 -9 3 57 3 66 0 94 -1 63 -3z"/>
</g>
</svg>
